# AST/ASF file generated using VICON BodyLanguage
# -----------------------------------------------
:version 1.10
:name VICON
:units
  mass 1.0
  length 0.45
  angle deg
:documentation
   .ast/.asf automatically generated from VICON data using
   VICON BodyBuilder and BodyLanguage model FoxedUp or BRILLIANT.MOD
:root
   order TX TY TZ RX RY RZ
   axis XYZ
   position 0 0 0  
   orientation 0 0 0 
:bonedata
  begin
     id 1 
     name lhipjoint
     direction 0.537252 -0.787203 0.302774 
     length 2.29576 
     axis 0 0 0  XYZ
  end
  begin
     id 2 
     name lfemur
     direction 0.34202 -0.939693 0  
     length 7.31114  
     axis 0 0 20  XYZ
    dof rx ry rz
    limits (-160.0 20.0)
           (-70.0 70.0)
           (-60.0 70.0)
  end
  begin
     id 3 
     name ltibia
     direction 0.34202 -0.939693 0   
     length 8.36008   
     axis 0 0 20   XYZ
    dof rx
    limits (-10.0 170.0)
  end
  begin
     id 4 
     name lfoot
     direction 0.0969116 -0.266263 0.959016   
     length 2.16704   
     axis -90 7.62852e-016 20   XYZ
    dof rx rz
    limits (-45.0 90.0)
           (-70.0 20.0)
  end
  begin
     id 5 
     name ltoes
     direction 1.53563e-011 -4.21779e-011 1   
     length 1.08338   
     axis -90 7.62852e-016 20   XYZ
    dof rx
    limits (-90.0 20.0)
  end
  begin
     id 6 
     name rhipjoint
     direction -0.588228 -0.754791 0.290308   
     length 2.39434  
     axis 0 0 0  XYZ 
  end
  begin
     id 7 
     name rfemur
     direction -0.34202 -0.939693 0   
     length 7.45207   
     axis 0 0 -20   XYZ
    dof rx ry rz
    limits (-160.0 20.0)
           (-70.0 70.0)
           (-70.0 60.0)
  end
  begin
     id 8 
     name rtibia
     direction -0.34202 -0.939693 0   
     length 8.03565   
     axis 0 0 -20   XYZ
    dof rx
    limits (-10.0 170.0)
 end
 begin
     id 9 
     name rfoot
     direction -0.107009 -0.294004 0.949795   
     length 2.11509  
     axis -90 -7.62852e-016 -20   XYZ
    dof rx rz
    limits (-45.0 90.0)
           (-20.0 70.0)
  end
  begin
     id 10 
     name rtoes
     direction -1.53533e-011 -4.22004e-011 1   
     length 1.05493   
     axis -90 -7.62852e-016 -20   XYZ
    dof rx
    limits (-90.0 20.0)
  end
  begin
     id 11 
     name lowerback
     direction -0.0115208 0.997969 -0.0626515   
     length 2.03153   
     axis 0 0 0   XYZ
    dof rx ry rz
    limits (-20.0 45.0)
           (-30.0 30.0)
           (-30.0 30.0)
  end
  begin
     id 12 
     name upperback
     direction -0.00423475 0.999974 -0.00583614   
     length 2.03619   
     axis 0 0 0   XYZ
    dof rx ry rz
    limits (-20.0 45.0)
           (-30.0 30.0)
           (-30.0 30.0)
  end
  begin
     id 13 
     name thorax
     direction 0.00289429 0.999728 0.0231573   
     length 2.03921   
     axis 0 0 0   XYZ
    dof rx ry rz
    limits (-20.0 45.0)
           (-30.0 30.0)
           (-30.0 30.0)
  end
  begin
     id 14 
     name lowerneck
     direction 0.0188995 0.987777 0.154721   
     length 1.78836   
     axis 0 0 0   XYZ
    dof rx ry rz
    limits (-20.0 45.0)
           (-30.0 30.0)
           (-30.0 30.0)
  end
  begin
     id 15 
     name upperneck
     direction -0.00612612 0.992995 -0.118   
     length 1.81789   
     axis 0 0 0   XYZ
    dof rx ry rz
    limits (-20.0 45.0)
           (-30.0 30.0)
           (-30.0 30.0)
  end
  begin
     id 16
     name head
     direction -0.00420226 0.998397 -0.0564482  
     length 1.82234  
     axis 0 0 0   XYZ
    dof rx ry rz
    limits (-20.0 45.0)
           (-30.0 30.0)
           (-30.0 30.0)
  end
  begin
     id 17 
     name lclavicle
     direction 0.916488 0.396539 0.0529676  
     length 3.51732  
     axis 0 0 0   XYZ
    dof ry rz
    limits (-20.0 10.0)
           (0.0 20.0)
  end
  begin
     id 18 
     name lhumerus
     direction 1 -4.4896e-011 8.36962e-028   
     length 5.45077   
     axis 180 -30 -90   XYZ
    dof rx ry rz
    limits (-60.0 90.0)
           (-90.0 90.0)
           (-90.0 90.0)
  end
  begin
     id 19
     name lradius
     direction 1 -4.48962e-011 3.01407e-027   
     length 3.05488   
     axis 180 -30 -90   XYZ
    dof rx
    limits (-10.0 170.0)
  end
  begin
     id 20
     name lwrist
     direction 1 -4.49002e-011 4.72961e-027   
     length 1.52744   
     axis -2.72261e-015 90 90   XYZ
    dof ry
    limits (-180.0 0.0)
 end
  begin
     id 21 
     name lhand
     direction 1 -4.4899e-011 9.45681e-027   
     length 0.638818   
     axis -6.0311e-015 90 90   XYZ
    dof rx rz
    limits (-90.0 90.0)
           (-45.0 45.0)
  end
  begin
     id 22 
     name lfingers
     direction 1 -4.48871e-011 1.88632e-026   
     length 0.515032   
     axis -1.20625e-014 90 90   XYZ
    dof rx
    limits (0.0 90.0)
  end
  begin
     id 23
     name lthumb
     direction 0.707107 -6.34964e-011 0.707107   
     length 0.739485   
     axis -90 45 6.32835e-014   XYZ
    dof rx rz
    limits (-45.0 45.0)
           (-45.0 45.0)
  end
  begin
     id 24 
     name rclavicle
     direction -0.949427 0.303202 0.0815894   
     length 3.76167  
     axis 0 0 0   XYZ 
    dof ry rz
    limits (-10.0 20.0)
           (-20.0 0.0)
  end
  begin
     id 25 
     name rhumerus
     direction -1 -4.48971e-011 -6.43969e-018  
     length 4.88702   
     axis 180 30 90   XYZ
    dof rx ry rz
    limits (-90.0 60.0)
           (-90.0 90.0)
           (-90.0 90.0)
  end
  begin
     id 26 
     name rradius
     direction -1 -4.48987e-011 5.46662e-027   
     length 3.22603   
     axis 180 30 90   XYZ
    dof rx
    limits (-10.0 170.0)
  end
  begin
     id 27 
     name rwrist
     direction -1 -4.48956e-011 4.72476e-027   
     length 1.61302   
     axis -2.72261e-015 -90 -90   XYZ
    dof ry
    limits (-180.0 0.0)
  end
  begin
     id 28
     name rhand
     direction -1 -4.4889e-011 9.43571e-027   
     length 0.716293   
     axis -6.0311e-015 -90 -90   XYZ
    dof rx rz
    limits (-90.0 90.0)
           (-45.0 45.0)
  end
  begin
     id 29
     name rfingers
     direction -1 -4.48887e-011 1.88701e-026   
     length 0.577494   
     axis -1.20625e-014 -90 -90   XYZ
    dof rx
    limits (0.0 90.0)
  end
  begin
     id 30
     name rthumb
     direction -0.707107 -6.34825e-011 0.707107   
     length 0.829169   
     axis -90 -45 -6.32835e-014   XYZ
    dof rx rz
    limits (-45.0 45.0)
           (-45.0 45.0)
  end
:hierarchy
  begin
    root lhipjoint rhipjoint lowerback
    lhipjoint lfemur
    lfemur ltibia
    ltibia lfoot
    lfoot ltoes
    rhipjoint rfemur
    rfemur rtibia
    rtibia rfoot
    rfoot rtoes
    lowerback upperback
    upperback thorax
    thorax lowerneck lclavicle rclavicle
    lowerneck upperneck
    upperneck head
    lclavicle lhumerus
    lhumerus lradius
    lradius lwrist
    lwrist lhand lthumb
    lhand lfingers
    rclavicle rhumerus
    rhumerus rradius
    rradius rwrist
    rwrist rhand rthumb
    rhand rfingers
  end

#!OML:ASF F:\VICON\USERDATA\INSTALL\rory3\rory3.ASF
:FULLY-SPECIFIED
:DEGREES
2815
root 1.60529 18.5284 0.0318854 -346.038 60.3502 -358.783
lowerback -11.5831 -3.37396 -3.87529
upperback -3.17674 -3.87005 -1.54393
thorax 3.30545 -1.8973 0.0163971
lowerneck -18.2165 -7.46046 -4.24791
upperneck 7.67416 -9.45998 4.08367
head 5.63827 -4.41976 1.00193
rclavicle 8.87077e-015 -2.3059e-014
rhumerus 6.57334 21.6184 -57.2775
rradius 101.548
rwrist 163.351
rhand -26.212 -13.9513
rfingers 7.12502
rthumb 0.341007 -43.9308
lclavicle 8.87077e-015 -2.3059e-014
lhumerus 8.16287 -45.5361 72.4279
lradius 102.446
lwrist 33.3214
lhand -13.9073 30.2201
lfingers 7.12502
lthumb 12.2185 59.8432
rfemur -14.252 20.806 8.98182
rtibia 1.78906e-014
rfoot -0.439174 4.92169
rtoes 4.89483
lfemur -12.3726 14.8187 -24.6762
ltibia 16.0786
lfoot -17.5146 16.6217
ltoes -23.6169
2816
root 1.61265 18.5285 0.0363733 -345.855 60.441 -358.676
lowerback -11.5105 -3.387 -3.81081
upperback -3.14948 -3.89916 -1.54873
thorax 3.29057 -1.91223 -0.0254641
lowerneck -18.3206 -7.25141 -3.89043
upperneck 7.03339 -9.16631 3.59895
head 5.39764 -4.30632 0.838431
rclavicle 7.90418e-014 3.89618e-014
rhumerus 4.95717 21.768 -57.8875
rradius 104.06
rwrist 160.725
rhand -26.9599 -14.2161
rfingers 7.12502
rthumb -0.381321 -44.1955
lclavicle 7.90418e-014 3.89618e-014
lhumerus 6.37574 -45.6484 73.108
lradius 105.169
lwrist 35.2337
lhand -13.0142 30.7463
lfingers 7.12502
lthumb 13.0795 60.3162
rfemur -14.2984 20.6909 8.92987
rtibia -1.41137e-014
rfoot -0.483011 4.9147
rtoes 4.63575
lfemur -12.386 14.6686 -24.7281
ltibia 15.9829
lfoot -17.4579 16.6635
ltoes -23.5709
2817
root 1.6197 18.5292 0.0421879 -345.809 60.5585 -358.713
lowerback -11.3865 -3.35255 -3.62237
upperback -3.17328 -3.88236 -1.57464
thorax 3.18341 -1.90244 -0.146206
lowerneck -18.4093 -7.09969 -3.70742
upperneck 6.51484 -8.94288 3.30787
head 5.21625 -4.21559 0.751739
rclavicle 3.45885e-014 5.56597e-015
rhumerus 3.15551 21.6669 -58.6554
rradius 106.569
rwrist 158.202
rhand -28.2611 -14.4103
rfingers 7.12502
rthumb -1.6381 -44.3838
lclavicle 3.45885e-014 5.56597e-015
lhumerus 4.54138 -45.8469 73.8554
lradius 107.831
lwrist 37.058
lhand -11.9468 31.4158
lfingers 7.12502
lthumb 14.1083 60.9168
rfemur -14.3212 20.5739 8.97474
rtibia -2.10712e-014
rfoot -0.502984 5.00317
rtoes 4.57592
lfemur -12.4004 14.5356 -24.6868
ltibia 15.9129
lfoot -17.4532 16.69
ltoes -23.3877
2818
root 1.62288 18.5298 0.0481376 -345.755 60.644 -358.732
lowerback -11.1899 -3.29035 -3.41105
upperback -3.21317 -3.83338 -1.63968
thorax 3.01495 -1.87624 -0.310811
lowerneck -18.6213 -6.99079 -3.62633
upperneck 6.10805 -8.76775 3.13381
head 5.10234 -4.139 0.705556
rclavicle 6.31638e-014 -8.74653e-015
rhumerus 1.3105 21.7485 -59.3554
rradius 109.171
rwrist 155.94
rhand -29.1183 -14.2294
rfingers 7.12502
rthumb -2.46596 -44.1949
lclavicle 6.31638e-014 -8.74653e-015
lhumerus 2.78917 -46.0863 74.5537
lradius 110.231
lwrist 38.8489
lhand -11.2208 31.6151
lfingers 7.12502
lthumb 14.8078 61.066
rfemur -14.3584 20.4865 9.00302
rtibia -3.4191e-014
rfoot -0.534291 5.07214
rtoes 4.241
lfemur -12.4282 14.5389 -24.6681
ltibia 15.8248
lfoot -17.4194 16.6332
ltoes -23.3914
2819
root 1.62868 18.53 0.0546015 -345.618 60.7424 -358.659
lowerback -10.9174 -3.22172 -3.10776
upperback -3.32405 -3.78524 -1.80635
thorax 2.71877 -1.84882 -0.624981
lowerneck -18.8689 -6.85572 -3.43829
upperneck 5.84727 -8.58732 2.9452
head 5.03534 -4.05675 0.635145
rclavicle -4.36705e-014 -3.26007e-014
rhumerus -0.789206 22.1402 -60.1846
rradius 111.774
rwrist 154.266
rhand -29.0257 -14.2224
rfingers 7.12502
rthumb -2.37655 -44.1889
lclavicle -4.36705e-014 -3.26007e-014
lhumerus 0.810855 -46.3539 75.3573
lradius 112.492
lwrist 40.3455
lhand -10.4397 31.5902
lfingers 7.12502
lthumb 15.5602 60.9842
rfemur -14.3732 20.3744 8.98785
rtibia 8.94531e-015
rfoot -0.578228 5.10193
rtoes 4.01862
lfemur -12.4637 14.4783 -24.6983
ltibia 15.7638
lfoot -17.4051 16.6251
ltoes -23.586
2820
root 1.63356 18.5289 0.0636044 -345.308 60.8052 -358.361
lowerback -10.6491 -3.16978 -3.01562
upperback -3.40141 -3.73444 -1.97371
thorax 2.47365 -1.82151 -0.824056
lowerneck -19.0532 -6.71027 -3.10018
upperneck 5.50269 -8.40969 2.5756
head 4.91803 -3.9867 0.488996
rclavicle -7.09537e-014 3.02153e-014
rhumerus -2.95358 22.2384 -61.1973
rradius 114.368
rwrist 153.069
rhand -29.1347 -14.7647
rfingers 7.12502
rthumb -2.48181 -44.73
lclavicle -7.09537e-014 3.02153e-014
lhumerus -1.09921 -46.4986 76.217
lradius 114.613
lwrist 41.2367
lhand -9.53262 31.6811
lfingers 7.12502
lthumb 16.4337 61.005
rfemur -14.3774 20.2714 8.85834
rtibia -3.00165e-014
rfoot -0.578974 5.0917
rtoes 4.36358
lfemur -12.4848 14.3362 -24.8193
ltibia 15.7549
lfoot -17.4298 16.6356
ltoes -23.3757
2821
root 1.63218 18.5298 0.0719377 -345.267 60.8677 -358.391
lowerback -10.6213 -3.14216 -3.26797
upperback -3.28156 -3.68105 -1.75292
thorax 2.61276 -1.79806 -0.451401
lowerneck -19.2587 -6.6132 -3.0485
upperneck 4.86059 -8.20922 2.12237
head 4.71808 -3.91755 0.368103
rclavicle 1.44119e-015 -1.59028e-014
rhumerus -4.59467 22.188 -61.6536
rradius 116.902
rwrist 151.904
rhand -29.4722 -15.3466
rfingers 7.12502
rthumb -2.80772 -45.3079
lclavicle 1.44119e-015 -1.59028e-014
lhumerus -2.54587 -46.3472 77.2327
lradius 116.683
lwrist 41.8349
lhand -8.60048 31.8248
lfingers 7.12502
lthumb 17.331 61.0721
rfemur -14.4389 20.2118 8.90034
rtibia 3.97569e-015
rfoot -0.55735 5.04527
rtoes 4.49112
lfemur -12.5601 14.1909 -24.7632
ltibia 15.7715
lfoot -17.4547 16.6742
ltoes -23.2654
2822
root 1.63103 18.5307 0.0777589 -345.548 60.9839 -358.799
lowerback -10.5816 -3.08615 -3.24721
upperback -3.16982 -3.62106 -1.51948
thorax 2.72017 -1.77194 -0.215484
lowerneck -19.4341 -6.54399 -3.05906
upperneck 4.18252 -8.04766 1.78945
head 4.51224 -3.8584 0.291546
rclavicle -5.74985e-014 -1.90833e-014
rhumerus -6.22999 22.228 -62.076
rradius 119.294
rwrist 150.619
rhand -29.8282 -15.8853
rfingers 7.12502
rthumb -3.1515 -45.8417
lclavicle -5.74985e-014 -1.90833e-014
lhumerus -3.9417 -46.345 78.1449
lradius 118.689
lwrist 42.4195
lhand -8.10945 31.9009
lfingers 7.12502
lthumb 17.8035 61.1059
rfemur -14.5137 20.1482 9.14238
rtibia 3.4191e-014
rfoot -0.52715 5.05125
rtoes 4.65043
lfemur -12.6501 13.9906 -24.5018
ltibia 15.796
lfoot -17.4787 16.7626
ltoes -23.2536
2823
root 1.63753 18.5307 0.0838089 -345.56 61.0831 -358.885
lowerback -10.3992 -3.02142 -2.99084
upperback -3.20649 -3.56964 -1.58964
thorax 2.56113 -1.74523 -0.412539
lowerneck -19.3975 -6.40642 -2.85466
upperneck 3.55063 -7.87067 1.5451
head 4.28598 -3.78295 0.215999
rclavicle 5.2181e-014 0
rhumerus -8.27196 22.3127 -63.0686
rradius 121.641
rwrist 149.48
rhand -30.1456 -15.9835
rfingers 7.12502
rthumb -3.45802 -45.9352
lclavicle 5.2181e-014 0
lhumerus -5.68021 -46.5885 78.8623
lradius 120.673
lwrist 43.3265
lhand -8.126 32.2654
lfingers 7.12502
lthumb 17.7876 61.4719
rfemur -14.5275 20.0607 9.22033
rtibia 4.77083e-015
rfoot -0.583097 5.13023
rtoes 4.59657
lfemur -12.7084 14.0193 -24.4472
ltibia 15.8212
lfoot -17.3692 16.6719
ltoes -23.6366
2824
root 1.64722 18.5304 0.0908257 -345.453 61.1479 -358.815
lowerback -10.2783 -2.96273 -2.88188
upperback -3.2241 -3.50824 -1.62298
thorax 2.46707 -1.7143 -0.492641
lowerneck -19.4499 -6.26156 -2.76563
upperneck 3.07083 -7.6601 1.30934
head 4.12619 -3.69071 0.15782
rclavicle -2.72335e-014 2.14687e-014
rhumerus -10.3186 22.5051 -64.005
rradius 123.899
rwrist 148.171
rhand -30.0727 -15.9611
rfingers 7.12502
rthumb -3.3877 -45.9139
lclavicle -2.72335e-014 2.14687e-014
lhumerus -7.53597 -46.727 79.7822
lradius 122.461
lwrist 44.383
lhand -7.98179 32.209
lfingers 7.12502
lthumb 17.9264 61.4028
rfemur -14.5163 19.9846 9.20035
rtibia -1.41137e-014
rfoot -0.58733 5.16117
rtoes 4.76846
lfemur -12.7243 13.909 -24.4698
ltibia 15.8456
lfoot -17.3125 16.7442
ltoes -24.05
2825
root 1.65415 18.53 0.0964419 -345.133 61.2171 -358.532
lowerback -10.3108 -2.93426 -3.15713
upperback -3.14618 -3.44508 -1.49351
thorax 2.58878 -1.68492 -0.202104
lowerneck -19.5577 -6.1338 -2.76476
upperneck 2.48933 -7.43291 0.902331
head 3.93955 -3.59977 0.0619584
rclavicle -7.45443e-016 -5.56597e-015
rhumerus -12.0901 22.6967 -64.6055
rradius 125.987
rwrist 146.775
rhand -29.8948 -15.7906
rfingers 7.12502
rthumb -3.21582 -45.7461
lclavicle -7.45443e-016 -5.56597e-015
lhumerus -9.18008 -46.6678 80.8986
lradius 123.993
lwrist 45.238
lhand -7.1095 31.7465
lfingers 7.12502
lthumb 18.7655 60.8614
rfemur -14.5422 19.8691 9.05953
rtibia 1.82882e-014
rfoot -0.600931 5.21195
rtoes 4.61197
lfemur -12.7528 13.8267 -24.617
ltibia 15.8166
lfoot -17.3356 16.7812
ltoes -24.3273
2826
root 1.6564 18.5302 0.101927 -345.246 61.3747 -358.675
lowerback -10.205 -2.88134 -3.14025
upperback -3.08196 -3.38594 -1.39878
thorax 2.60098 -1.65733 -0.10271
lowerneck -19.5617 -6.00448 -2.64547
upperneck 1.85435 -7.2405 0.509114
head 3.7194 -3.52218 -0.0474588
rclavicle 4.8255e-014 7.15625e-015
rhumerus -13.9002 22.5699 -65.4044
rradius 127.927
rwrist 145.972
rhand -30.1785 -15.7977
rfingers 7.12502
rthumb -3.4898 -45.7489
lclavicle 4.8255e-014 7.15625e-015
lhumerus -10.7771 -46.7799 81.8721
lradius 125.371
lwrist 46.1208
lhand -6.3006 31.4777
lfingers 7.12502
lthumb 19.5434 60.5154
rfemur -14.4961 19.7438 9.20361
rtibia 2.0276e-014
rfoot -0.657481 5.23342
rtoes 4.56931
lfemur -12.7182 13.758 -24.4993
ltibia 15.7511
lfoot -17.3373 16.7504
ltoes -24.2856
